<?xml version="1.0" standalone="no"?>
<!DOCTYPE svg PUBLIC "-//W3C//DTD SVG 20010904//EN"
 "http://www.w3.org/TR/2001/REC-SVG-20010904/DTD/svg10.dtd">
<svg version="1.0" xmlns="http://www.w3.org/2000/svg"
 width="155.000000pt" height="154.000000pt" viewBox="0 0 155.000000 154.000000"
 preserveAspectRatio="xMidYMid meet">

<g transform="translate(0.000000,154.000000) scale(0.100000,-0.100000)"
fill="#000000" stroke="none">
<path d="M244 1454 c-58 -21 -118 -75 -148 -136 l-26 -52 0 -505 0 -506 24
-50 c25 -56 86 -115 143 -142 35 -17 80 -18 543 -18 l505 0 50 27 c62 33 108
80 134 138 20 43 21 64 21 541 0 569 1 560 -81 640 -82 80 -74 79 -633 78
-403 0 -498 -3 -532 -15z m1082 -41 c52 -28 97 -79 118 -134 15 -39 16 -97 14
-539 -3 -548 0 -521 -70 -590 -71 -71 -57 -70 -609 -70 l-495 0 -51 25 c-55
28 -99 77 -119 134 -10 27 -13 152 -13 521 -1 467 0 487 20 530 32 71 84 118
159 141 14 4 246 7 515 6 483 -2 491 -2 531 -24z"/>
<path d="M694 1266 c-45 -45 -50 -107 -13 -159 l20 -28 -27 -32 c-38 -45 -88
-77 -121 -77 -54 -1 -87 -47 -77 -109 6 -38 5 -41 -29 -61 -50 -30 -73 -81
-58 -131 15 -51 53 -79 106 -79 53 0 91 28 106 79 9 32 8 44 -6 74 -16 35 -13
77 6 77 5 0 19 15 29 34 l20 33 36 -34 36 -34 -39 -34 c-72 -61 -76 -157 -10
-223 39 -39 85 -52 142 -40 35 8 41 6 56 -14 24 -31 29 -66 12 -80 -43 -36
-54 -103 -25 -157 48 -89 171 -93 222 -8 31 50 26 109 -11 151 -16 19 -39 38
-50 41 -15 5 -19 16 -19 48 0 49 -7 63 -46 86 -26 16 -28 21 -25 68 3 60 -15
100 -60 136 l-32 25 36 36 c58 58 61 138 8 195 l-27 29 23 26 c41 48 25 142
-29 180 -13 9 -43 16 -71 16 -42 0 -54 -5 -83 -34z m141 -31 c16 -15 25 -36
25 -55 0 -30 -37 -80 -60 -80 -5 0 -10 -10 -10 -22 0 -16 11 -28 33 -38 43
-20 65 -76 45 -116 -7 -16 -28 -38 -45 -49 -27 -17 -32 -26 -33 -57 0 -26 4
-38 14 -38 8 0 28 -12 45 -26 36 -30 49 -83 31 -122 -11 -25 -9 -29 28 -62 35
-32 41 -43 47 -93 6 -46 11 -57 26 -57 27 0 68 -41 75 -76 9 -46 -35 -94 -85
-94 -78 0 -116 96 -58 146 43 36 34 92 -23 158 -31 35 -33 35 -60 21 -39 -20
-69 -19 -108 5 -62 38 -70 114 -18 166 19 19 41 34 50 34 12 0 16 10 16 38 -1
31 -6 40 -33 57 -18 11 -38 34 -46 52 l-14 32 -44 -30 c-23 -17 -43 -36 -43
-44 0 -8 -9 -20 -19 -27 -10 -7 -25 -32 -31 -56 -12 -37 -11 -44 3 -60 25 -28
21 -67 -9 -91 -33 -26 -58 -27 -84 -1 -29 29 -26 74 6 99 15 12 32 21 39 21
17 0 36 71 29 107 -7 33 15 59 42 49 21 -8 107 46 135 85 11 16 31 32 45 35
17 4 24 13 24 30 0 13 -5 24 -10 24 -23 0 -60 50 -60 80 0 19 9 40 25 55 15
16 36 25 55 25 19 0 40 -9 55 -25z"/>
<path d="M304 1277 c-2 -7 -3 -58 -2 -113 3 -85 5 -99 21 -102 15 -3 17 6 17
92 l0 96 96 0 c86 0 95 2 92 18 -3 15 -18 17 -111 20 -83 2 -109 0 -113 -11z"/>
<path d="M931 893 l-25 -56 27 -19 c17 -12 27 -29 27 -44 0 -37 25 -89 51
-108 13 -9 42 -16 64 -16 50 0 83 22 101 67 32 74 -24 153 -108 153 -24 0 -42
10 -73 39 l-40 40 -24 -56z m127 -70 c18 8 28 6 50 -10 36 -26 40 -68 11 -99
-45 -48 -113 -15 -107 51 2 26 -4 41 -25 63 -37 38 -21 50 17 13 26 -24 34
-27 54 -18z"/>
<path d="M615 500 c-14 -31 -24 -40 -42 -40 -34 0 -77 -27 -97 -60 -37 -63 -7
-158 59 -186 45 -18 69 -18 112 3 63 29 88 98 62 171 -8 24 -7 37 5 61 9 16
16 34 16 39 0 6 -82 52 -94 52 -2 0 -11 -18 -21 -40z m55 -32 c-1 -7 -7 -24
-14 -37 -11 -20 -10 -28 6 -59 29 -58 -6 -122 -68 -122 -46 0 -63 9 -80 42
-31 59 13 128 81 128 27 0 35 5 45 30 13 30 30 41 30 18z"/>
<path d="M1232 293 c3 -89 21 -102 26 -19 l3 55 57 3 c43 2 57 7 57 18 0 12
-16 16 -73 18 l-73 3 3 -78z"/>
</g>
</svg>
