<?xml version="1.0" standalone="no"?>
<!DOCTYPE svg PUBLIC "-//W3C//DTD SVG 20010904//EN"
 "http://www.w3.org/TR/2001/REC-SVG-20010904/DTD/svg10.dtd">
<svg version="1.0" xmlns="http://www.w3.org/2000/svg"
 width="985.000000pt" height="389.000000pt" viewBox="0 0 985.000000 389.000000"
 preserveAspectRatio="xMidYMid meet">

<g transform="translate(0.000000,389.000000) scale(0.100000,-0.100000)"
fill="#000000" stroke="none">
<path d="M3425 3196 c-31 -13 -55 -51 -55 -86 0 -11 13 -34 28 -51 52 -59 142
-32 158 47 5 26 1 37 -23 62 -34 38 -68 46 -108 28z"/>
<path d="M5670 2955 c-103 -29 -173 -85 -222 -178 -20 -37 -23 -57 -23 -157 0
-109 2 -118 30 -169 64 -117 169 -174 320 -175 78 0 98 4 151 28 74 33 145
102 176 171 18 41 23 68 23 145 0 82 -4 103 -26 150 -72 151 -259 232 -429
185z m208 -183 c48 -35 66 -77 67 -152 0 -51 -5 -73 -24 -103 -46 -75 -155
-100 -241 -54 -57 30 -83 80 -83 157 0 74 27 127 79 158 53 31 154 28 202 -6z"/>
<path d="M1104 2944 c-58 -21 -118 -75 -148 -136 l-26 -52 0 -505 0 -506 24
-50 c25 -56 86 -115 143 -142 35 -17 80 -18 543 -18 l505 0 50 27 c62 33 108
80 134 138 20 43 21 64 21 541 0 569 1 560 -81 640 -82 80 -74 79 -633 78
-403 0 -498 -3 -532 -15z m1082 -41 c52 -28 97 -79 118 -134 15 -39 16 -97 14
-539 -3 -548 0 -521 -70 -590 -71 -71 -57 -70 -609 -70 l-495 0 -51 25 c-55
28 -99 77 -119 134 -10 27 -13 152 -13 521 -1 467 0 487 20 530 32 71 84 118
159 141 14 4 246 7 515 6 483 -2 491 -2 531 -24z"/>
<path d="M1554 2756 c-45 -45 -50 -107 -13 -159 l20 -28 -27 -32 c-38 -45 -88
-77 -121 -77 -54 -1 -87 -47 -77 -109 6 -38 5 -41 -29 -61 -50 -30 -73 -81
-58 -131 15 -51 53 -79 106 -79 53 0 91 28 106 79 9 32 8 44 -6 74 -16 35 -13
77 6 77 5 0 19 15 29 34 l20 33 36 -34 36 -34 -39 -34 c-72 -61 -76 -157 -10
-223 39 -39 85 -52 142 -40 35 8 41 6 56 -14 24 -31 29 -66 12 -80 -43 -36
-54 -103 -25 -157 48 -89 171 -93 222 -8 31 50 26 109 -11 151 -16 19 -39 38
-50 41 -15 5 -19 16 -19 48 0 49 -7 63 -46 86 -26 16 -28 21 -25 68 3 60 -15
100 -60 136 l-32 25 36 36 c58 58 61 138 8 195 l-27 29 23 26 c41 48 25 142
-29 180 -13 9 -43 16 -71 16 -42 0 -54 -5 -83 -34z m141 -31 c16 -15 25 -36
25 -55 0 -30 -37 -80 -60 -80 -5 0 -10 -10 -10 -22 0 -16 11 -28 33 -38 43
-20 65 -76 45 -116 -7 -16 -28 -38 -45 -49 -27 -17 -32 -26 -33 -57 0 -26 4
-38 14 -38 8 0 28 -12 45 -26 36 -30 49 -83 31 -122 -11 -25 -9 -29 28 -62 35
-32 41 -43 47 -93 6 -46 11 -57 26 -57 27 0 68 -41 75 -76 9 -46 -35 -94 -85
-94 -78 0 -116 96 -58 146 43 36 34 92 -23 158 -31 35 -33 35 -60 21 -39 -20
-69 -19 -108 5 -62 38 -70 114 -18 166 19 19 41 34 50 34 12 0 16 10 16 38 -1
31 -6 40 -33 57 -18 11 -38 34 -46 52 l-14 32 -44 -30 c-23 -17 -43 -36 -43
-44 0 -8 -9 -20 -19 -27 -10 -7 -25 -32 -31 -56 -12 -37 -11 -44 3 -60 25 -28
21 -67 -9 -91 -33 -26 -58 -27 -84 -1 -29 29 -26 74 6 99 15 12 32 21 39 21
17 0 36 71 29 107 -7 33 15 59 42 49 21 -8 107 46 135 85 11 16 31 32 45 35
17 4 24 13 24 30 0 13 -5 24 -10 24 -23 0 -60 50 -60 80 0 41 39 80 80 80 19
0 40 -9 55 -25z"/>
<path d="M1164 2767 c-2 -7 -3 -58 -2 -113 3 -85 5 -99 21 -102 15 -3 17 6 17
92 l0 96 96 0 c86 0 95 2 92 18 -3 15 -18 17 -111 20 -83 2 -109 0 -113 -11z"/>
<path d="M1791 2383 l-25 -56 27 -19 c17 -12 27 -29 27 -44 0 -37 25 -89 51
-108 13 -9 42 -16 64 -16 50 0 83 22 101 67 32 74 -24 153 -108 153 -24 0 -42
10 -73 39 l-40 40 -24 -56z m127 -70 c18 8 28 6 50 -10 36 -26 40 -68 11 -99
-45 -48 -113 -15 -107 51 2 26 -4 41 -25 63 -37 38 -21 50 17 13 26 -24 34
-27 54 -18z"/>
<path d="M1475 1990 c-14 -31 -24 -40 -42 -40 -34 0 -77 -27 -97 -60 -37 -63
-7 -158 59 -186 45 -18 69 -18 112 3 63 29 88 98 62 171 -8 24 -7 37 5 61 9
16 16 34 16 39 0 6 -82 52 -94 52 -2 0 -11 -18 -21 -40z m55 -32 c-1 -7 -7
-24 -14 -37 -11 -20 -10 -28 6 -59 29 -58 -6 -122 -68 -122 -46 0 -63 9 -80
42 -31 59 13 128 81 128 27 0 35 5 45 30 13 30 30 41 30 18z"/>
<path d="M2092 1783 c3 -89 21 -102 26 -19 l3 55 57 3 c43 2 57 7 57 18 0 12
-16 16 -73 18 l-73 3 3 -78z"/>
<path d="M2730 2620 l0 -340 188 0 187 1 132 337 132 337 1 -337 0 -338 95 0
95 0 0 340 0 340 -186 -2 -186 -3 -136 -334 -137 -335 -3 337 -2 337 -90 0
-90 0 0 -340z"/>
<path d="M3620 2880 l0 -79 123 -3 122 -3 3 -257 2 -258 90 0 90 0 0 260 0
260 130 0 130 0 0 80 0 80 -345 0 -345 0 0 -80z"/>
<path d="M4370 2620 l0 -340 90 0 90 0 1 278 0 277 111 -277 110 -278 96 0 97
0 105 270 105 269 3 -269 2 -270 95 0 95 0 0 340 0 340 -161 -2 -161 -3 -87
-212 c-48 -117 -89 -214 -92 -217 -3 -3 -45 93 -95 214 l-89 220 -157 0 -158
0 0 -340z"/>
<path d="M7780 1991 c0 -11 12 -29 26 -40 57 -45 194 -17 194 40 0 26 -46 26
-55 0 -12 -38 -95 -38 -115 0 -14 25 -50 25 -50 0z"/>
<path d="M2730 1721 l0 -191 55 0 54 0 41 85 c22 47 59 124 83 173 l42 87 5
-170 5 -170 30 0 30 0 0 185 0 185 -55 3 -55 3 -85 -173 -85 -173 -5 170 -5
170 -27 3 -28 3 0 -190z"/>
<path d="M3170 1720 l0 -190 30 0 30 0 0 85 0 85 105 0 105 0 0 -85 0 -85 30
0 30 0 0 191 0 190 -27 -3 c-28 -3 -28 -4 -31 -80 l-3 -78 -104 0 -105 0 0 80
0 80 -30 0 -30 0 0 -190z"/>
<path d="M3674 1891 c-22 -10 -50 -31 -62 -46 -48 -61 -52 -175 -10 -244 63
-101 306 -100 368 1 29 48 26 68 -9 68 -23 0 -33 -7 -43 -27 -39 -82 -221 -84
-262 -4 -20 39 -20 114 0 156 19 40 59 59 128 60 65 0 113 -20 132 -56 11 -22
22 -29 45 -29 29 0 31 2 24 28 -9 37 -42 71 -90 93 -54 25 -166 25 -221 0z"/>
<path d="M4030 1880 l0 -30 65 0 65 0 0 -160 0 -160 30 0 30 0 0 160 0 160 65
0 65 0 0 30 0 30 -160 0 -160 0 0 -30z"/>
<path d="M4410 1721 l0 -191 55 0 55 0 51 108 c28 59 65 136 83 172 l31 65 5
-170 5 -170 30 0 30 0 0 185 0 185 -55 3 -55 3 -85 -173 -85 -173 -5 170 -5
170 -27 3 -28 3 0 -190z"/>
<path d="M4817 1904 c-4 -4 -7 -18 -7 -31 0 -22 4 -23 65 -23 l65 0 0 -160 0
-160 30 0 30 0 0 160 0 159 68 3 c64 3 67 4 67 28 l0 25 -156 3 c-85 1 -158
-1 -162 -4z"/>
<path d="M5150 1902 c0 -5 32 -75 70 -156 39 -80 70 -148 70 -151 0 -3 -16 -5
-35 -5 -33 0 -35 -2 -35 -31 l0 -32 57 6 c44 5 63 12 84 34 24 25 159 307 159
333 0 5 -13 10 -28 10 -27 0 -32 -7 -90 -142 l-61 -143 -41 90 c-23 50 -53
114 -66 143 -20 46 -26 52 -53 52 -17 0 -31 -4 -31 -8z"/>
<path d="M5540 1880 l0 -30 65 0 65 0 0 -160 0 -160 30 0 30 0 0 160 0 160 65
0 65 0 0 30 0 30 -160 0 -160 0 0 -30z"/>
<path d="M6116 1868 c-3 -24 -7 -81 -10 -128 -6 -102 -17 -136 -51 -152 -23
-10 -25 -17 -25 -75 l0 -63 30 0 c28 0 30 2 30 40 l0 40 145 0 145 0 0 -40 c0
-35 3 -40 24 -40 20 0 24 6 30 46 10 77 9 84 -19 84 l-25 0 0 165 0 165 -134
0 -135 0 -5 -42z m212 -150 l-3 -133 -94 -3 c-93 -3 -94 -3 -87 20 14 49 26
135 26 191 l0 57 80 0 81 0 -3 -132z"/>
<path d="M6500 1721 l0 -191 55 0 55 0 51 108 c28 59 65 136 83 172 l31 65 5
-170 5 -170 30 0 30 0 0 185 0 185 -55 3 -55 3 -85 -173 -85 -173 -5 170 -5
170 -27 3 -28 3 0 -190z"/>
<path d="M7003 1899 c-30 -9 -83 -60 -83 -80 0 -18 53 -8 82 16 57 49 178 26
178 -32 0 -35 -18 -48 -77 -53 -51 -4 -58 -8 -61 -27 -3 -22 0 -23 52 -23 81
0 119 -44 82 -95 -10 -14 -30 -20 -79 -23 -63 -4 -68 -3 -97 27 -21 21 -41 31
-61 31 -34 0 -35 -5 -9 -48 27 -44 74 -62 160 -62 109 0 160 36 160 113 0 27
-7 45 -26 64 l-25 25 20 22 c42 44 19 115 -45 142 -37 16 -122 17 -171 3z"/>
<path d="M7370 1798 c-23 -62 -55 -148 -71 -190 l-28 -78 34 0 c31 0 35 3 46
40 l12 40 102 0 102 0 12 -40 c11 -37 15 -40 47 -40 30 0 35 3 29 18 -4 9 -33
87 -65 172 -32 85 -61 163 -65 173 -6 13 -19 17 -60 17 l-53 0 -42 -112z m135
-15 c17 -49 31 -94 33 -100 3 -10 -17 -13 -72 -13 -42 0 -76 2 -76 4 0 4 39
115 61 174 5 12 12 22 17 22 4 0 21 -39 37 -87z"/>
<path d="M7710 1720 l0 -190 56 0 56 0 81 170 c45 94 85 170 89 170 4 0 8 -76
8 -170 l0 -170 30 0 30 0 -2 188 -3 187 -53 3 -53 3 -81 -170 c-45 -94 -85
-171 -90 -171 -4 0 -8 77 -8 170 l0 170 -30 0 -30 0 0 -190z"/>
<path d="M8150 1720 l0 -190 30 0 29 0 3 83 3 82 102 3 102 3 3 -83 3 -83 30
0 30 0 0 185 0 185 -30 0 -30 0 -3 -77 -3 -78 -104 0 -105 0 0 80 0 80 -30 0
-30 0 0 -190z"/>
<path d="M8672 1893 c-12 -22 -132 -347 -132 -356 0 -4 14 -7 30 -7 26 0 32 6
46 40 l16 41 101 -3 100 -3 12 -35 c10 -29 17 -36 43 -38 18 -2 32 0 32 5 0 4
-30 89 -68 188 l-67 180 -52 3 c-42 2 -54 -1 -61 -15z m100 -120 l35 -98 -38
-3 c-22 -2 -56 -2 -78 0 l-38 3 35 98 c19 53 38 97 42 97 4 0 23 -44 42 -97z"/>
<path d="M5873 1299 c-109 -26 -165 -162 -114 -275 35 -76 107 -110 218 -101
76 6 131 32 160 76 32 48 30 61 -12 61 -23 0 -35 -5 -35 -14 0 -8 -14 -26 -31
-40 -26 -23 -40 -26 -100 -26 -116 0 -149 31 -149 140 0 52 4 64 29 92 29 32
31 33 114 33 77 0 88 -3 111 -24 14 -14 26 -30 26 -38 0 -8 13 -13 35 -13 40
0 43 11 15 57 -38 63 -163 97 -267 72z"/>
<path d="M2730 1115 l0 -185 55 0 56 0 83 173 84 172 1 -172 1 -173 35 0 35 0
0 185 0 186 -61 -3 -60 -3 -75 -160 c-42 -88 -79 -164 -85 -170 -5 -5 -9 56
-9 163 l0 172 -30 0 -30 0 0 -185z"/>
<path d="M3280 1296 c0 -2 32 -70 70 -151 39 -81 70 -151 70 -156 0 -5 -16 -9
-35 -9 -31 0 -35 -3 -35 -26 0 -26 1 -26 60 -22 43 3 67 10 80 24 19 18 160
315 160 335 0 5 -13 9 -29 9 -27 0 -31 -6 -86 -135 -32 -74 -61 -132 -65 -130
-4 2 -33 63 -66 134 -58 129 -60 131 -91 131 -18 0 -33 -2 -33 -4z"/>
<path d="M3710 1116 l0 -186 30 0 30 0 0 64 0 63 98 5 c120 6 156 22 173 77
15 51 5 102 -27 132 -24 23 -34 24 -165 27 l-139 4 0 -186z m254 118 c19 -18
21 -85 4 -102 -8 -8 -46 -12 -105 -12 l-93 0 0 65 0 65 89 0 c68 0 93 -4 105
-16z"/>
<path d="M4110 1114 l0 -186 136 4 136 3 29 33 c41 46 41 108 0 154 -29 33
-30 33 -135 36 l-106 4 0 44 0 44 120 0 120 0 0 25 0 25 -150 0 -150 0 0 -186z
m250 -24 c11 -11 20 -31 20 -45 0 -49 -31 -65 -125 -65 l-85 0 0 65 0 65 85 0
c72 0 88 -3 105 -20z"/>
<path d="M4531 1128 c-35 -95 -66 -179 -68 -185 -4 -9 6 -13 29 -13 32 0 36 3
47 40 l12 40 98 0 99 0 16 -40 c14 -34 20 -40 46 -40 16 0 30 3 30 7 0 3 -30
86 -67 185 l-66 178 -56 0 -57 0 -63 -172z m163 38 c20 -54 36 -100 36 -102 0
-2 -36 -4 -80 -4 l-80 0 35 96 c35 98 45 118 50 112 2 -2 20 -48 39 -102z"/>
<path d="M4890 1115 l0 -185 35 0 35 0 0 80 0 80 105 0 105 0 0 -80 0 -80 30
0 30 0 0 185 0 185 -30 0 -30 0 0 -75 0 -75 -105 0 -105 0 0 75 0 75 -35 0
-35 0 0 -185z"/>
<path d="M5320 1115 l0 -185 58 0 59 0 84 173 84 172 3 -172 2 -173 30 0 30 0
0 185 0 185 -55 0 -56 0 -79 -165 c-43 -91 -83 -165 -89 -165 -7 0 -11 55 -11
165 l0 165 -30 0 -30 0 0 -185z"/>
<path d="M6200 1275 c0 -23 4 -24 63 -27 l62 -3 3 -157 3 -158 29 0 30 0 0
160 0 160 65 0 c63 0 65 1 65 25 l0 25 -160 0 -160 0 0 -25z"/>
<path d="M6580 1115 l0 -186 56 3 56 3 78 163 c43 90 81 166 84 169 3 4 6 -71
6 -165 l0 -172 30 0 30 0 0 185 0 185 -55 0 -56 0 -43 -92 c-24 -51 -61 -129
-82 -173 l-39 -80 -3 173 -2 172 -30 0 -30 0 0 -185z"/>
<path d="M7020 1115 l0 -185 30 0 30 0 0 85 c0 47 4 85 9 85 5 0 45 -39 88
-86 73 -79 81 -85 113 -82 l34 3 -82 90 c-45 50 -82 94 -82 100 0 5 37 47 82
92 l83 83 -35 0 c-31 0 -46 -10 -110 -75 -41 -41 -80 -75 -87 -75 -9 0 -13 21
-13 75 l0 75 -30 0 -30 0 0 -185z"/>
<path d="M7380 1115 l0 -186 56 3 57 3 77 163 c43 90 81 166 84 169 3 4 6 -71
6 -165 l0 -172 30 0 30 0 0 185 0 186 -56 -3 -56 -3 -75 -160 c-41 -88 -79
-164 -84 -170 -5 -5 -9 57 -9 163 l0 172 -30 0 -30 0 0 -185z"/>
</g>
</svg>
